# xmcd CD database file
# Copyright (C) 1993-1998 Ti Kan
#
# Track frame offsets:
#	150
#	15090
#	47912
#	61127
#	77955
#	91792
#	97800
#	122577
#	153240
#	190440
#	229277
#
# Disc length: 3443 seconds
#
# Revision: 1
# Processed by: cddbd v1.4b41PL1 Copyright (c) Steve Scherf et al.
# Submitted via: CDValet v3.01 - Copyright (c) 1997 Greg Leichner
#
DISCID=7a0d710b
DTITLE=Jimi Hendrix - Spotlight
DYEAR=1900
DGENRE=
TTITLE0=Little Ivey (Little wing)
TTITLE1=Voodoo Chile
TTITLE2=Room full of mirrors
TTITLE3=Fire
TTITLE4=Purple haze
TTITLE5=Wild thing
TTITLE6=Bleeding heart
TTITLE7=The sunshine of your love
TTITLE8=Room full of mirrors
TTITLE9=Bleeding heart
TTITLE10=Smashing of the amps
EXTD=
EXTT0=
EXTT1=
EXTT2=
EXTT3=
EXTT4=
EXTT5=
EXTT6=
EXTT7=
EXTT8=
EXTT9=
EXTT10=
PLAYORDER=
